<mxfile host="app.diagrams.net" modified="2020-07-23T21:44:30.750Z" agent="5.0 (Windows NT 10.0; Win64; x64) AppleWebKit/537.36 (KHTML, like Gecko) Chrome/84.0.4147.89 Safari/537.36" etag="9arBsWh6bVnct3EEh1_Z" version="13.4.9" type="github">
  <diagram name="Page-1" id="5f0bae14-7c28-e335-631c-24af17079c00">
    <mxGraphModel dx="2031" dy="3639" grid="1" gridSize="10" guides="1" tooltips="1" connect="1" arrows="1" fold="1" page="1" pageScale="1" pageWidth="1100" pageHeight="850" background="#ffffff" math="0" shadow="0">
      <root>
        <mxCell id="0" />
        <mxCell id="1" parent="0" />
        <mxCell id="NrKTWO5p2-0dnxn5_g5g-2" style="edgeStyle=orthogonalEdgeStyle;rounded=0;orthogonalLoop=1;jettySize=auto;html=1;exitX=0;exitY=0;exitDx=105;exitDy=130;exitPerimeter=0;" parent="1" source="NrKTWO5p2-0dnxn5_g5g-1" target="NrKTWO5p2-0dnxn5_g5g-3" edge="1">
          <mxGeometry relative="1" as="geometry">
            <mxPoint x="180" y="260" as="targetPoint" />
          </mxGeometry>
        </mxCell>
        <mxCell id="NrKTWO5p2-0dnxn5_g5g-5" style="edgeStyle=orthogonalEdgeStyle;rounded=0;orthogonalLoop=1;jettySize=auto;html=1;exitX=0;exitY=0;exitDx=105;exitDy=130;exitPerimeter=0;entryX=0.5;entryY=0;entryDx=0;entryDy=0;" parent="1" source="NrKTWO5p2-0dnxn5_g5g-1" target="NrKTWO5p2-0dnxn5_g5g-6" edge="1">
          <mxGeometry relative="1" as="geometry">
            <mxPoint x="460" y="230" as="targetPoint" />
          </mxGeometry>
        </mxCell>
        <mxCell id="NrKTWO5p2-0dnxn5_g5g-1" value="ServerUI: Base&lt;br&gt;&lt;br&gt;AccountMembershipServerUI&lt;br&gt;&lt;br&gt;Account MembershipClientUI" style="shape=cube;whiteSpace=wrap;html=1;boundedLbl=1;backgroundOutline=1;darkOpacity=0.05;darkOpacity2=0.1;" parent="1" vertex="1">
          <mxGeometry x="210" y="50" width="190" height="130" as="geometry" />
        </mxCell>
        <mxCell id="NrKTWO5p2-0dnxn5_g5g-13" style="edgeStyle=orthogonalEdgeStyle;rounded=0;orthogonalLoop=1;jettySize=auto;html=1;exitX=0.5;exitY=1;exitDx=0;exitDy=0;entryX=0;entryY=0.5;entryDx=0;entryDy=0;" parent="1" source="NrKTWO5p2-0dnxn5_g5g-3" target="2" edge="1">
          <mxGeometry relative="1" as="geometry" />
        </mxCell>
        <mxCell id="NrKTWO5p2-0dnxn5_g5g-3" value="IndividualMembershipServerUI&lt;br&gt;&lt;br&gt;IndividualMembershipClientUI" style="rounded=0;whiteSpace=wrap;html=1;" parent="1" vertex="1">
          <mxGeometry x="90" y="230" width="190" height="60" as="geometry" />
        </mxCell>
        <mxCell id="NrKTWO5p2-0dnxn5_g5g-16" style="edgeStyle=orthogonalEdgeStyle;rounded=0;orthogonalLoop=1;jettySize=auto;html=1;exitX=0.5;exitY=1;exitDx=0;exitDy=0;entryX=0.25;entryY=0;entryDx=0;entryDy=0;" parent="1" source="NrKTWO5p2-0dnxn5_g5g-6" target="NrKTWO5p2-0dnxn5_g5g-14" edge="1">
          <mxGeometry relative="1" as="geometry" />
        </mxCell>
        <mxCell id="NrKTWO5p2-0dnxn5_g5g-6" value="GroupMembershipServerUI&lt;br&gt;&lt;br&gt;GroupMembershipClientUI" style="rounded=0;whiteSpace=wrap;html=1;" parent="1" vertex="1">
          <mxGeometry x="310" y="230" width="210" height="60" as="geometry" />
        </mxCell>
        <mxCell id="NrKTWO5p2-0dnxn5_g5g-7" style="edgeStyle=orthogonalEdgeStyle;rounded=0;orthogonalLoop=1;jettySize=auto;html=1;exitX=0;exitY=0;exitDx=105;exitDy=130;exitPerimeter=0;" parent="1" source="NrKTWO5p2-0dnxn5_g5g-9" target="NrKTWO5p2-0dnxn5_g5g-10" edge="1">
          <mxGeometry relative="1" as="geometry">
            <mxPoint x="680" y="260" as="targetPoint" />
          </mxGeometry>
        </mxCell>
        <mxCell id="NrKTWO5p2-0dnxn5_g5g-8" style="edgeStyle=orthogonalEdgeStyle;rounded=0;orthogonalLoop=1;jettySize=auto;html=1;exitX=0;exitY=0;exitDx=105;exitDy=130;exitPerimeter=0;" parent="1" source="NrKTWO5p2-0dnxn5_g5g-9" edge="1">
          <mxGeometry relative="1" as="geometry">
            <mxPoint x="960" y="230" as="targetPoint" />
          </mxGeometry>
        </mxCell>
        <mxCell id="p3PnFOhuihg-IEMphHv4-27" value="" style="edgeStyle=orthogonalEdgeStyle;rounded=0;orthogonalLoop=1;jettySize=auto;html=1;" edge="1" parent="1" source="NrKTWO5p2-0dnxn5_g5g-9" target="p3PnFOhuihg-IEMphHv4-26">
          <mxGeometry relative="1" as="geometry" />
        </mxCell>
        <mxCell id="NrKTWO5p2-0dnxn5_g5g-9" value="Business: Base&lt;br&gt;&lt;br&gt;AccountMembershipBusiness&lt;br&gt;&lt;br&gt;AccountMembershipBusinessArgs" style="shape=cube;whiteSpace=wrap;html=1;boundedLbl=1;backgroundOutline=1;darkOpacity=0.05;darkOpacity2=0.1;" parent="1" vertex="1">
          <mxGeometry x="705" y="50" width="220" height="130" as="geometry" />
        </mxCell>
        <mxCell id="NrKTWO5p2-0dnxn5_g5g-12" value="" style="edgeStyle=orthogonalEdgeStyle;rounded=0;orthogonalLoop=1;jettySize=auto;html=1;" parent="1" source="NrKTWO5p2-0dnxn5_g5g-10" target="2" edge="1">
          <mxGeometry relative="1" as="geometry">
            <Array as="points">
              <mxPoint x="560" y="260" />
              <mxPoint x="560" y="480" />
              <mxPoint x="510" y="480" />
            </Array>
          </mxGeometry>
        </mxCell>
        <mxCell id="D4kZALISSUl1icWql2U2-17" value="Members" style="edgeStyle=orthogonalEdgeStyle;rounded=0;orthogonalLoop=1;jettySize=auto;html=1;exitX=0.75;exitY=1;exitDx=0;exitDy=0;" parent="1" source="NrKTWO5p2-0dnxn5_g5g-10" target="D4kZALISSUl1icWql2U2-19" edge="1">
          <mxGeometry x="0.6071" relative="1" as="geometry">
            <mxPoint x="1270" y="330" as="targetPoint" />
            <mxPoint as="offset" />
          </mxGeometry>
        </mxCell>
        <mxCell id="D4kZALISSUl1icWql2U2-27" value="Group" style="edgeStyle=orthogonalEdgeStyle;rounded=0;orthogonalLoop=1;jettySize=auto;html=1;exitX=0.75;exitY=1;exitDx=0;exitDy=0;" parent="1" source="NrKTWO5p2-0dnxn5_g5g-10" target="D4kZALISSUl1icWql2U2-28" edge="1">
          <mxGeometry x="0.4211" relative="1" as="geometry">
            <mxPoint x="1130" y="440" as="targetPoint" />
            <Array as="points">
              <mxPoint x="740" y="290" />
              <mxPoint x="740" y="345" />
              <mxPoint x="1130" y="345" />
              <mxPoint x="1130" y="400" />
            </Array>
            <mxPoint as="offset" />
          </mxGeometry>
        </mxCell>
        <mxCell id="NrKTWO5p2-0dnxn5_g5g-10" value="IndividualMembershipBusiness&lt;br&gt;&lt;br&gt;IndividualMembershipBusinessArgs" style="rounded=0;whiteSpace=wrap;html=1;" parent="1" vertex="1">
          <mxGeometry x="590" y="230" width="200" height="60" as="geometry" />
        </mxCell>
        <mxCell id="NrKTWO5p2-0dnxn5_g5g-15" value="" style="edgeStyle=orthogonalEdgeStyle;rounded=0;orthogonalLoop=1;jettySize=auto;html=1;" parent="1" source="NrKTWO5p2-0dnxn5_g5g-11" target="NrKTWO5p2-0dnxn5_g5g-14" edge="1">
          <mxGeometry relative="1" as="geometry" />
        </mxCell>
        <mxCell id="D4kZALISSUl1icWql2U2-18" value="Members" style="edgeStyle=orthogonalEdgeStyle;rounded=0;orthogonalLoop=1;jettySize=auto;html=1;exitX=1;exitY=0.5;exitDx=0;exitDy=0;" parent="1" source="NrKTWO5p2-0dnxn5_g5g-11" target="D4kZALISSUl1icWql2U2-20" edge="1">
          <mxGeometry relative="1" as="geometry">
            <mxPoint x="1840" y="260" as="targetPoint" />
          </mxGeometry>
        </mxCell>
        <mxCell id="NrKTWO5p2-0dnxn5_g5g-11" value="GroupMembershipBusiness&lt;br&gt;&lt;br&gt;GroupMembershipBusinessArgs" style="rounded=0;whiteSpace=wrap;html=1;" parent="1" vertex="1">
          <mxGeometry x="860" y="230" width="210" height="60" as="geometry" />
        </mxCell>
        <mxCell id="2" value="IndividualMembershipUtil" style="whiteSpace=wrap;html=1;rounded=0;" parent="1" vertex="1">
          <mxGeometry x="240" y="540" width="160" height="60" as="geometry" />
        </mxCell>
        <mxCell id="NrKTWO5p2-0dnxn5_g5g-14" value="GroupMembershipUtil" style="whiteSpace=wrap;html=1;rounded=0;" parent="1" vertex="1">
          <mxGeometry x="850" y="580" width="145" height="60" as="geometry" />
        </mxCell>
        <mxCell id="NrKTWO5p2-0dnxn5_g5g-25" value="Membership Order" style="edgeStyle=orthogonalEdgeStyle;rounded=0;orthogonalLoop=1;jettySize=auto;html=1;entryX=0.5;entryY=1;entryDx=0;entryDy=0;exitX=0.5;exitY=0;exitDx=0;exitDy=0;" parent="1" source="NrKTWO5p2-0dnxn5_g5g-19" target="NrKTWO5p2-0dnxn5_g5g-32" edge="1">
          <mxGeometry x="-0.0435" y="-10" relative="1" as="geometry">
            <mxPoint x="820" y="-320" as="targetPoint" />
            <mxPoint x="10" y="10" as="offset" />
            <mxPoint x="810.0000000000005" y="-310" as="sourcePoint" />
          </mxGeometry>
        </mxCell>
        <mxCell id="p3PnFOhuihg-IEMphHv4-23" style="edgeStyle=orthogonalEdgeStyle;rounded=0;orthogonalLoop=1;jettySize=auto;html=1;exitX=1;exitY=0.5;exitDx=0;exitDy=0;entryX=0;entryY=0.5;entryDx=0;entryDy=0;" edge="1" parent="1" source="NrKTWO5p2-0dnxn5_g5g-19" target="D4kZALISSUl1icWql2U2-9">
          <mxGeometry relative="1" as="geometry">
            <mxPoint x="1060" y="-470" as="targetPoint" />
          </mxGeometry>
        </mxCell>
        <mxCell id="NrKTWO5p2-0dnxn5_g5g-19" value="UpdatedRelated" style="rounded=0;whiteSpace=wrap;html=1;" parent="1" vertex="1">
          <mxGeometry x="715" y="-277.5" width="120" height="60" as="geometry" />
        </mxCell>
        <mxCell id="D4kZALISSUl1icWql2U2-37" value="" style="edgeStyle=orthogonalEdgeStyle;rounded=0;orthogonalLoop=1;jettySize=auto;html=1;" parent="1" source="NrKTWO5p2-0dnxn5_g5g-32" target="D4kZALISSUl1icWql2U2-36" edge="1">
          <mxGeometry relative="1" as="geometry" />
        </mxCell>
        <mxCell id="NrKTWO5p2-0dnxn5_g5g-32" value="Calls MembershipOrderBusiness to create the ER100 record. MembershipOrderBusiness should be an inherited class to OrderBusiness." style="whiteSpace=wrap;html=1;rounded=0;" parent="1" vertex="1">
          <mxGeometry x="690" y="-430" width="170" height="100" as="geometry" />
        </mxCell>
        <mxCell id="D4kZALISSUl1icWql2U2-4" style="edgeStyle=orthogonalEdgeStyle;rounded=0;orthogonalLoop=1;jettySize=auto;html=1;exitX=0.5;exitY=0;exitDx=0;exitDy=0;entryX=0;entryY=0.5;entryDx=0;entryDy=0;" parent="1" source="D4kZALISSUl1icWql2U2-3" edge="1">
          <mxGeometry relative="1" as="geometry" />
        </mxCell>
        <mxCell id="D4kZALISSUl1icWql2U2-40" style="edgeStyle=orthogonalEdgeStyle;rounded=0;orthogonalLoop=1;jettySize=auto;html=1;exitX=0.75;exitY=0;exitDx=0;exitDy=0;entryX=0;entryY=0.5;entryDx=0;entryDy=0;" parent="1" source="D4kZALISSUl1icWql2U2-3" target="p3PnFOhuihg-IEMphHv4-14" edge="1">
          <mxGeometry relative="1" as="geometry">
            <mxPoint x="640" y="-760" as="targetPoint" />
            <Array as="points">
              <mxPoint x="583" y="-770" />
            </Array>
          </mxGeometry>
        </mxCell>
        <mxCell id="p3PnFOhuihg-IEMphHv4-45" style="edgeStyle=orthogonalEdgeStyle;rounded=0;orthogonalLoop=1;jettySize=auto;html=1;entryX=0.5;entryY=1;entryDx=0;entryDy=0;" edge="1" parent="1" source="D4kZALISSUl1icWql2U2-3" target="p3PnFOhuihg-IEMphHv4-40">
          <mxGeometry relative="1" as="geometry" />
        </mxCell>
        <mxCell id="D4kZALISSUl1icWql2U2-3" value="The AccountMemberItems will be set as added rows when the Membership Type and Period is selected, and then used to create the ER101 rows&amp;nbsp;" style="rounded=0;whiteSpace=wrap;html=1;" parent="1" vertex="1">
          <mxGeometry x="450" y="-535" width="150" height="105" as="geometry" />
        </mxCell>
        <mxCell id="D4kZALISSUl1icWql2U2-11" value="" style="edgeStyle=orthogonalEdgeStyle;rounded=0;orthogonalLoop=1;jettySize=auto;html=1;" parent="1" source="D4kZALISSUl1icWql2U2-9" target="D4kZALISSUl1icWql2U2-10" edge="1">
          <mxGeometry relative="1" as="geometry" />
        </mxCell>
        <mxCell id="D4kZALISSUl1icWql2U2-9" value="Create Account Members: MIght only be set in the Individual/group classes, since the number of Account Members created is dependent" style="rounded=0;whiteSpace=wrap;html=1;" parent="1" vertex="1">
          <mxGeometry x="1235" y="-547.5" width="160" height="130" as="geometry" />
        </mxCell>
        <mxCell id="D4kZALISSUl1icWql2U2-41" style="edgeStyle=orthogonalEdgeStyle;rounded=0;orthogonalLoop=1;jettySize=auto;html=1;exitX=0.5;exitY=1;exitDx=0;exitDy=0;entryX=0.5;entryY=0;entryDx=0;entryDy=0;" parent="1" source="D4kZALISSUl1icWql2U2-10" target="D4kZALISSUl1icWql2U2-13" edge="1">
          <mxGeometry relative="1" as="geometry" />
        </mxCell>
        <mxCell id="D4kZALISSUl1icWql2U2-10" value="MembershipAccountBusiness&lt;br&gt;&lt;br&gt;Will inherit from the AccountBusiness" style="whiteSpace=wrap;html=1;rounded=0;" parent="1" vertex="1">
          <mxGeometry x="1430" y="-550" width="230" height="135" as="geometry" />
        </mxCell>
        <mxCell id="D4kZALISSUl1icWql2U2-15" value="" style="edgeStyle=orthogonalEdgeStyle;rounded=0;orthogonalLoop=1;jettySize=auto;html=1;" parent="1" source="D4kZALISSUl1icWql2U2-13" target="D4kZALISSUl1icWql2U2-14" edge="1">
          <mxGeometry relative="1" as="geometry" />
        </mxCell>
        <mxCell id="D4kZALISSUl1icWql2U2-13" value="UpdateRelated" style="rounded=0;whiteSpace=wrap;html=1;" parent="1" vertex="1">
          <mxGeometry x="1485" y="-347.5" width="120" height="60" as="geometry" />
        </mxCell>
        <mxCell id="D4kZALISSUl1icWql2U2-14" value="AccountMemberBusiness&lt;br&gt;&lt;br&gt;Creates the Account Members for individual and Group" style="whiteSpace=wrap;html=1;rounded=0;" parent="1" vertex="1">
          <mxGeometry x="1275" y="-357.5" width="160" height="80" as="geometry" />
        </mxCell>
        <mxCell id="D4kZALISSUl1icWql2U2-23" value="" style="edgeStyle=orthogonalEdgeStyle;rounded=0;orthogonalLoop=1;jettySize=auto;html=1;" parent="1" source="D4kZALISSUl1icWql2U2-19" target="D4kZALISSUl1icWql2U2-22" edge="1">
          <mxGeometry relative="1" as="geometry" />
        </mxCell>
        <mxCell id="D4kZALISSUl1icWql2U2-19" value="Calls base AccountMembership" style="rounded=0;whiteSpace=wrap;html=1;" parent="1" vertex="1">
          <mxGeometry x="1220" y="330" width="120" height="60" as="geometry" />
        </mxCell>
        <mxCell id="D4kZALISSUl1icWql2U2-25" value="" style="edgeStyle=orthogonalEdgeStyle;rounded=0;orthogonalLoop=1;jettySize=auto;html=1;" parent="1" source="D4kZALISSUl1icWql2U2-20" target="D4kZALISSUl1icWql2U2-24" edge="1">
          <mxGeometry relative="1" as="geometry" />
        </mxCell>
        <mxCell id="D4kZALISSUl1icWql2U2-20" value="Calls base AccountMembership" style="rounded=0;whiteSpace=wrap;html=1;" parent="1" vertex="1">
          <mxGeometry x="1440" y="230" width="120" height="60" as="geometry" />
        </mxCell>
        <mxCell id="D4kZALISSUl1icWql2U2-22" value="Single Membership Account:&lt;br&gt;Which will be retrieved from the Contact Dropdown" style="whiteSpace=wrap;html=1;rounded=0;" parent="1" vertex="1">
          <mxGeometry x="1260" y="425" width="180" height="125" as="geometry" />
        </mxCell>
        <mxCell id="D4kZALISSUl1icWql2U2-24" value="Takes information from the additionalTablesToSave, populating records from the EV870 ListData(members)" style="whiteSpace=wrap;html=1;rounded=0;" parent="1" vertex="1">
          <mxGeometry x="1500" y="380" width="160" height="100" as="geometry" />
        </mxCell>
        <mxCell id="D4kZALISSUl1icWql2U2-28" value="Assign to selected &quot;Collection&quot;" style="rounded=0;whiteSpace=wrap;html=1;" parent="1" vertex="1">
          <mxGeometry x="1067.5" y="430" width="120" height="60" as="geometry" />
        </mxCell>
        <mxCell id="p3PnFOhuihg-IEMphHv4-55" value="" style="edgeStyle=orthogonalEdgeStyle;rounded=0;orthogonalLoop=1;jettySize=auto;html=1;" edge="1" parent="1" source="D4kZALISSUl1icWql2U2-32" target="p3PnFOhuihg-IEMphHv4-54">
          <mxGeometry relative="1" as="geometry" />
        </mxCell>
        <mxCell id="D4kZALISSUl1icWql2U2-32" value="MembershipOrderBusinessArgs needs a reference to AccountMemberItems.&amp;nbsp;&lt;br&gt;&lt;br&gt;This will be used to create all of the ER101 rows.&lt;br&gt;&lt;br&gt;Example: AccountMemberItem will contain the priceList and quantity of selected items. You will use that information to retrieve the necessary items. MembershipOrderBusiness will then split items based off of the Installment information, to create the Orders(ER100)" style="whiteSpace=wrap;html=1;rounded=0;" parent="1" vertex="1">
          <mxGeometry x="610" y="-1060" width="330" height="152.5" as="geometry" />
        </mxCell>
        <mxCell id="D4kZALISSUl1icWql2U2-34" value="Create MEMBERSHIP_ORDER_MEMBERSHIP record" style="whiteSpace=wrap;html=1;rounded=0;" parent="1" vertex="1">
          <mxGeometry x="1000" y="-835" width="230" height="130" as="geometry" />
        </mxCell>
        <mxCell id="D4kZALISSUl1icWql2U2-38" style="edgeStyle=orthogonalEdgeStyle;rounded=0;orthogonalLoop=1;jettySize=auto;html=1;exitX=0.5;exitY=0;exitDx=0;exitDy=0;entryX=0.5;entryY=1;entryDx=0;entryDy=0;" parent="1" source="D4kZALISSUl1icWql2U2-36" target="p3PnFOhuihg-IEMphHv4-9" edge="1">
          <mxGeometry relative="1" as="geometry" />
        </mxCell>
        <mxCell id="D4kZALISSUl1icWql2U2-36" value="Validate" style="whiteSpace=wrap;html=1;rounded=0;" parent="1" vertex="1">
          <mxGeometry x="715" y="-590" width="120" height="60" as="geometry" />
        </mxCell>
        <mxCell id="p3PnFOhuihg-IEMphHv4-2" value="&lt;font style=&quot;font-size: 14px&quot;&gt;&lt;b&gt;Level of effort for workflows&lt;/b&gt;&lt;br&gt;&lt;br&gt;Account Membership Business.&lt;br&gt;Standard creation of business class 1 day&lt;br&gt;&amp;nbsp;Process - minimal&lt;br&gt;&amp;nbsp;Validation -&amp;nbsp;.5 days&lt;br&gt;UpdateRelated - 7 days&lt;br&gt;&lt;br&gt;Total Days: 8.25&lt;br&gt;&lt;br&gt;Individual Membership Business:&lt;br&gt;Standard creation of business class 1 day&lt;br&gt;Inherits account membership business&lt;br&gt;Validation - minimal&lt;br&gt;Process- minimal&amp;nbsp;&lt;br&gt;UpdateRelated - .5&amp;nbsp;&lt;br&gt;&lt;br&gt;Total Days : 1.5&lt;br&gt;&lt;br&gt;Group Membership Business&lt;br&gt;Standard creation of business class 1 day&lt;br&gt;Inherits account membership business&lt;br&gt;Validation - minimal&lt;br&gt;Process- minimal&amp;nbsp;&lt;br&gt;UpdateRelated - minimal&lt;br&gt;&lt;br&gt;Total Days: 1&lt;br&gt;&lt;br&gt;Group membership Util:&lt;br&gt;&lt;br&gt;Total days 1.&amp;nbsp;&lt;br&gt;&lt;br&gt;Individual Membership Util&lt;br&gt;&lt;br&gt;Total days 1.&lt;br&gt;&lt;br&gt;AccountMembershipUtil&lt;br&gt;Setsaveresultvalidation messages - Days: .5&lt;br&gt;&lt;br&gt;Total days&amp;nbsp; 1.5&lt;br&gt;&lt;br&gt;&lt;br&gt;Membership Account Business&amp;nbsp;&lt;br&gt;&lt;br&gt;Total Days: 1.5&lt;br&gt;&lt;br&gt;AccountMemberBusiness&lt;br&gt;&lt;br&gt;Standard creation of business class 1 day&lt;br&gt;&lt;br&gt;Total Days: 1&lt;br&gt;&lt;br&gt;AccountMemberItemBusiness&lt;br&gt;Standard creation of business class 1 day&lt;br&gt;Validate .5&lt;br&gt;&lt;br&gt;&lt;br&gt;&lt;br&gt;&lt;/font&gt;" style="rounded=0;whiteSpace=wrap;html=1;align=left;horizontal=1;verticalAlign=top;" vertex="1" parent="1">
          <mxGeometry x="1730" y="-640" width="440" height="1010" as="geometry" />
        </mxCell>
        <mxCell id="p3PnFOhuihg-IEMphHv4-15" value="" style="edgeStyle=orthogonalEdgeStyle;rounded=0;orthogonalLoop=1;jettySize=auto;html=1;" edge="1" parent="1" source="p3PnFOhuihg-IEMphHv4-9" target="p3PnFOhuihg-IEMphHv4-14">
          <mxGeometry relative="1" as="geometry" />
        </mxCell>
        <mxCell id="p3PnFOhuihg-IEMphHv4-9" value="Process" style="whiteSpace=wrap;html=1;rounded=0;" vertex="1" parent="1">
          <mxGeometry x="715" y="-710" width="120" height="60" as="geometry" />
        </mxCell>
        <mxCell id="p3PnFOhuihg-IEMphHv4-16" value="" style="edgeStyle=orthogonalEdgeStyle;rounded=0;orthogonalLoop=1;jettySize=auto;html=1;entryX=0.5;entryY=1;entryDx=0;entryDy=0;" edge="1" parent="1" source="p3PnFOhuihg-IEMphHv4-14" target="D4kZALISSUl1icWql2U2-32">
          <mxGeometry relative="1" as="geometry">
            <Array as="points">
              <mxPoint x="775" y="-897" />
            </Array>
          </mxGeometry>
        </mxCell>
        <mxCell id="p3PnFOhuihg-IEMphHv4-17" style="edgeStyle=orthogonalEdgeStyle;rounded=0;orthogonalLoop=1;jettySize=auto;html=1;entryX=0;entryY=0.5;entryDx=0;entryDy=0;" edge="1" parent="1" source="p3PnFOhuihg-IEMphHv4-14" target="D4kZALISSUl1icWql2U2-34">
          <mxGeometry relative="1" as="geometry" />
        </mxCell>
        <mxCell id="p3PnFOhuihg-IEMphHv4-14" value="UpdateRelated" style="whiteSpace=wrap;html=1;rounded=0;" vertex="1" parent="1">
          <mxGeometry x="715" y="-800" width="120" height="60" as="geometry" />
        </mxCell>
        <mxCell id="p3PnFOhuihg-IEMphHv4-22" value="AccountMemberItems" style="edgeStyle=orthogonalEdgeStyle;rounded=0;orthogonalLoop=1;jettySize=auto;html=1;exitX=0;exitY=0.5;exitDx=0;exitDy=0;" edge="1" parent="1" source="NrKTWO5p2-0dnxn5_g5g-19" target="D4kZALISSUl1icWql2U2-3">
          <mxGeometry relative="1" as="geometry">
            <mxPoint x="545.0000000000005" y="-390" as="targetPoint" />
            <mxPoint x="740" y="-310" as="sourcePoint" />
          </mxGeometry>
        </mxCell>
        <mxCell id="p3PnFOhuihg-IEMphHv4-29" value="" style="edgeStyle=orthogonalEdgeStyle;rounded=0;orthogonalLoop=1;jettySize=auto;html=1;" edge="1" parent="1" source="p3PnFOhuihg-IEMphHv4-26" target="p3PnFOhuihg-IEMphHv4-28">
          <mxGeometry relative="1" as="geometry" />
        </mxCell>
        <mxCell id="p3PnFOhuihg-IEMphHv4-26" value="Validate" style="whiteSpace=wrap;html=1;" vertex="1" parent="1">
          <mxGeometry x="715" y="-60" width="120" height="60" as="geometry" />
        </mxCell>
        <mxCell id="p3PnFOhuihg-IEMphHv4-30" value="" style="edgeStyle=orthogonalEdgeStyle;rounded=0;orthogonalLoop=1;jettySize=auto;html=1;" edge="1" parent="1" source="p3PnFOhuihg-IEMphHv4-28" target="NrKTWO5p2-0dnxn5_g5g-19">
          <mxGeometry relative="1" as="geometry" />
        </mxCell>
        <mxCell id="p3PnFOhuihg-IEMphHv4-65" value="" style="edgeStyle=orthogonalEdgeStyle;rounded=0;orthogonalLoop=1;jettySize=auto;html=1;" edge="1" parent="1" source="p3PnFOhuihg-IEMphHv4-28" target="p3PnFOhuihg-IEMphHv4-64">
          <mxGeometry relative="1" as="geometry" />
        </mxCell>
        <mxCell id="p3PnFOhuihg-IEMphHv4-28" value="Process" style="whiteSpace=wrap;html=1;" vertex="1" parent="1">
          <mxGeometry x="715" y="-170" width="120" height="60" as="geometry" />
        </mxCell>
        <mxCell id="p3PnFOhuihg-IEMphHv4-38" value="" style="edgeStyle=orthogonalEdgeStyle;rounded=0;orthogonalLoop=1;jettySize=auto;html=1;" edge="1" parent="1" source="p3PnFOhuihg-IEMphHv4-40" target="p3PnFOhuihg-IEMphHv4-41">
          <mxGeometry relative="1" as="geometry" />
        </mxCell>
        <mxCell id="p3PnFOhuihg-IEMphHv4-39" value="" style="edgeStyle=orthogonalEdgeStyle;rounded=0;orthogonalLoop=1;jettySize=auto;html=1;entryX=0;entryY=0.5;entryDx=0;entryDy=0;" edge="1" parent="1" source="p3PnFOhuihg-IEMphHv4-40" target="p3PnFOhuihg-IEMphHv4-46">
          <mxGeometry relative="1" as="geometry">
            <mxPoint x="280" y="-585" as="targetPoint" />
          </mxGeometry>
        </mxCell>
        <mxCell id="p3PnFOhuihg-IEMphHv4-40" value="Validate" style="whiteSpace=wrap;html=1;" vertex="1" parent="1">
          <mxGeometry x="60" y="-630" width="120" height="60" as="geometry" />
        </mxCell>
        <mxCell id="p3PnFOhuihg-IEMphHv4-49" value="" style="edgeStyle=orthogonalEdgeStyle;rounded=0;orthogonalLoop=1;jettySize=auto;html=1;" edge="1" parent="1" source="p3PnFOhuihg-IEMphHv4-41" target="p3PnFOhuihg-IEMphHv4-48">
          <mxGeometry relative="1" as="geometry" />
        </mxCell>
        <mxCell id="p3PnFOhuihg-IEMphHv4-41" value="Process" style="whiteSpace=wrap;html=1;" vertex="1" parent="1">
          <mxGeometry x="60" y="-740" width="120" height="60" as="geometry" />
        </mxCell>
        <mxCell id="p3PnFOhuihg-IEMphHv4-42" value="Yes" style="edgeStyle=orthogonalEdgeStyle;rounded=0;orthogonalLoop=1;jettySize=auto;html=1;exitX=1;exitY=0.5;exitDx=0;exitDy=0;" edge="1" parent="1" target="p3PnFOhuihg-IEMphHv4-44" source="p3PnFOhuihg-IEMphHv4-46">
          <mxGeometry relative="1" as="geometry">
            <mxPoint x="440" y="-600" as="targetPoint" />
            <mxPoint x="385" y="-585" as="sourcePoint" />
          </mxGeometry>
        </mxCell>
        <mxCell id="p3PnFOhuihg-IEMphHv4-43" value="No" style="edgeStyle=orthogonalEdgeStyle;rounded=0;orthogonalLoop=1;jettySize=auto;html=1;entryX=1;entryY=0.25;entryDx=0;entryDy=0;exitX=0.5;exitY=0;exitDx=0;exitDy=0;" edge="1" parent="1" target="p3PnFOhuihg-IEMphHv4-41" source="p3PnFOhuihg-IEMphHv4-46">
          <mxGeometry relative="1" as="geometry">
            <mxPoint x="320" y="-720" as="targetPoint" />
            <mxPoint x="320" y="-634.5238095238096" as="sourcePoint" />
            <Array as="points">
              <mxPoint x="320" y="-650" />
              <mxPoint x="320" y="-725" />
            </Array>
          </mxGeometry>
        </mxCell>
        <mxCell id="p3PnFOhuihg-IEMphHv4-44" value="Ask question for adding item to unpaid installents if yes then pass anwer to membership order business to create er101s for each installment" style="rounded=0;whiteSpace=wrap;html=1;" vertex="1" parent="1">
          <mxGeometry x="430" y="-780" width="120" height="140" as="geometry" />
        </mxCell>
        <mxCell id="p3PnFOhuihg-IEMphHv4-46" value="Is existing Account membershiup adding Account member items?" style="rhombus;whiteSpace=wrap;html=1;" vertex="1" parent="1">
          <mxGeometry x="280" y="-650" width="105" height="130" as="geometry" />
        </mxCell>
        <mxCell id="p3PnFOhuihg-IEMphHv4-53" value="" style="edgeStyle=orthogonalEdgeStyle;rounded=0;orthogonalLoop=1;jettySize=auto;html=1;entryX=0;entryY=0.393;entryDx=0;entryDy=0;entryPerimeter=0;exitX=0.5;exitY=0;exitDx=0;exitDy=0;" edge="1" parent="1" source="p3PnFOhuihg-IEMphHv4-48" target="p3PnFOhuihg-IEMphHv4-54">
          <mxGeometry relative="1" as="geometry">
            <mxPoint x="120" y="-1130" as="targetPoint" />
          </mxGeometry>
        </mxCell>
        <mxCell id="p3PnFOhuihg-IEMphHv4-48" value="UpdateRelated" style="whiteSpace=wrap;html=1;rounded=0;" vertex="1" parent="1">
          <mxGeometry x="60" y="-870" width="120" height="60" as="geometry" />
        </mxCell>
        <mxCell id="p3PnFOhuihg-IEMphHv4-57" value="" style="edgeStyle=orthogonalEdgeStyle;rounded=0;orthogonalLoop=1;jettySize=auto;html=1;" edge="1" parent="1" source="p3PnFOhuihg-IEMphHv4-54" target="p3PnFOhuihg-IEMphHv4-56">
          <mxGeometry relative="1" as="geometry" />
        </mxCell>
        <mxCell id="p3PnFOhuihg-IEMphHv4-74" value="" style="edgeStyle=orthogonalEdgeStyle;rounded=0;orthogonalLoop=1;jettySize=auto;html=1;" edge="1" parent="1" source="p3PnFOhuihg-IEMphHv4-54" target="p3PnFOhuihg-IEMphHv4-73">
          <mxGeometry relative="1" as="geometry" />
        </mxCell>
        <mxCell id="p3PnFOhuihg-IEMphHv4-54" value="InstallmentMembershipItemSupport" style="whiteSpace=wrap;html=1;rounded=0;" vertex="1" parent="1">
          <mxGeometry x="450" y="-1300" width="330" height="152.5" as="geometry" />
        </mxCell>
        <mxCell id="p3PnFOhuihg-IEMphHv4-59" value="" style="edgeStyle=orthogonalEdgeStyle;rounded=0;orthogonalLoop=1;jettySize=auto;html=1;" edge="1" parent="1" source="p3PnFOhuihg-IEMphHv4-56" target="p3PnFOhuihg-IEMphHv4-58">
          <mxGeometry relative="1" as="geometry" />
        </mxCell>
        <mxCell id="p3PnFOhuihg-IEMphHv4-56" value="Validate data is correct for class" style="whiteSpace=wrap;html=1;rounded=0;" vertex="1" parent="1">
          <mxGeometry x="555" y="-1500" width="120" height="60" as="geometry" />
        </mxCell>
        <mxCell id="p3PnFOhuihg-IEMphHv4-63" value="" style="edgeStyle=orthogonalEdgeStyle;rounded=0;orthogonalLoop=1;jettySize=auto;html=1;" edge="1" parent="1" source="p3PnFOhuihg-IEMphHv4-58" target="p3PnFOhuihg-IEMphHv4-62">
          <mxGeometry relative="1" as="geometry" />
        </mxCell>
        <mxCell id="p3PnFOhuihg-IEMphHv4-58" value="Process&lt;br&gt;(Determine needed support class)" style="whiteSpace=wrap;html=1;rounded=0;" vertex="1" parent="1">
          <mxGeometry x="555" y="-1600" width="120" height="60" as="geometry" />
        </mxCell>
        <mxCell id="p3PnFOhuihg-IEMphHv4-69" value="No" style="edgeStyle=orthogonalEdgeStyle;rounded=0;orthogonalLoop=1;jettySize=auto;html=1;" edge="1" parent="1" source="p3PnFOhuihg-IEMphHv4-62" target="p3PnFOhuihg-IEMphHv4-70">
          <mxGeometry relative="1" as="geometry">
            <mxPoint x="852.5" y="-1740" as="targetPoint" />
          </mxGeometry>
        </mxCell>
        <mxCell id="p3PnFOhuihg-IEMphHv4-76" value="" style="edgeStyle=orthogonalEdgeStyle;rounded=0;orthogonalLoop=1;jettySize=auto;html=1;" edge="1" parent="1" source="p3PnFOhuihg-IEMphHv4-62" target="p3PnFOhuihg-IEMphHv4-75">
          <mxGeometry relative="1" as="geometry" />
        </mxCell>
        <mxCell id="p3PnFOhuihg-IEMphHv4-62" value="Is added account membership?" style="rhombus;whiteSpace=wrap;html=1;rounded=0;" vertex="1" parent="1">
          <mxGeometry x="780" y="-1630" width="145" height="120" as="geometry" />
        </mxCell>
        <mxCell id="p3PnFOhuihg-IEMphHv4-64" value="Keep list of what the added row keys are that exist. We already do this with AddedRowKeys but need to manage it to be set and to set the existing key in process added row keys" style="whiteSpace=wrap;html=1;" vertex="1" parent="1">
          <mxGeometry x="925" y="-200" width="225" height="120" as="geometry" />
        </mxCell>
        <mxCell id="p3PnFOhuihg-IEMphHv4-66" value="Take the period and installment to figure out the pricing for each item&amp;nbsp;" style="whiteSpace=wrap;html=1;rounded=0;" vertex="1" parent="1">
          <mxGeometry x="1450" y="-1490" width="120" height="60" as="geometry" />
        </mxCell>
        <mxCell id="p3PnFOhuihg-IEMphHv4-72" value="Yes" style="edgeStyle=orthogonalEdgeStyle;rounded=0;orthogonalLoop=1;jettySize=auto;html=1;" edge="1" parent="1" source="p3PnFOhuihg-IEMphHv4-70" target="p3PnFOhuihg-IEMphHv4-71">
          <mxGeometry relative="1" as="geometry" />
        </mxCell>
        <mxCell id="p3PnFOhuihg-IEMphHv4-79" value="No" style="edgeStyle=orthogonalEdgeStyle;rounded=0;orthogonalLoop=1;jettySize=auto;html=1;" edge="1" parent="1" source="p3PnFOhuihg-IEMphHv4-70" target="p3PnFOhuihg-IEMphHv4-78">
          <mxGeometry relative="1" as="geometry">
            <Array as="points">
              <mxPoint x="853" y="-1820" />
              <mxPoint x="853" y="-1820" />
            </Array>
          </mxGeometry>
        </mxCell>
        <mxCell id="p3PnFOhuihg-IEMphHv4-70" value="Is Added Order?&amp;nbsp;" style="rhombus;whiteSpace=wrap;html=1;" vertex="1" parent="1">
          <mxGeometry x="812.5" y="-1780" width="80" height="80" as="geometry" />
        </mxCell>
        <mxCell id="p3PnFOhuihg-IEMphHv4-85" value="" style="edgeStyle=orthogonalEdgeStyle;rounded=0;orthogonalLoop=1;jettySize=auto;html=1;" edge="1" parent="1" source="p3PnFOhuihg-IEMphHv4-71" target="p3PnFOhuihg-IEMphHv4-84">
          <mxGeometry relative="1" as="geometry" />
        </mxCell>
        <mxCell id="p3PnFOhuihg-IEMphHv4-90" value="" style="edgeStyle=orthogonalEdgeStyle;rounded=0;orthogonalLoop=1;jettySize=auto;html=1;" edge="1" parent="1" source="p3PnFOhuihg-IEMphHv4-71" target="p3PnFOhuihg-IEMphHv4-75">
          <mxGeometry relative="1" as="geometry" />
        </mxCell>
        <mxCell id="p3PnFOhuihg-IEMphHv4-71" value="Class name TBD" style="whiteSpace=wrap;html=1;" vertex="1" parent="1">
          <mxGeometry x="1097.5" y="-1770" width="120" height="60" as="geometry" />
        </mxCell>
        <mxCell id="p3PnFOhuihg-IEMphHv4-73" value="Each of these properties will be used to determine the pricing for er101s&lt;br&gt;Properties:&lt;br&gt;MembershipOrderBusinessArgs&lt;br&gt;AccountMembershipItemBusinessArgs&lt;br&gt;AddedAccountMembershipRowKeys" style="whiteSpace=wrap;html=1;rounded=0;align=left;" vertex="1" parent="1">
          <mxGeometry x="850" y="-1286.5600000000002" width="240" height="125.63" as="geometry" />
        </mxCell>
        <mxCell id="p3PnFOhuihg-IEMphHv4-77" value="" style="edgeStyle=orthogonalEdgeStyle;rounded=0;orthogonalLoop=1;jettySize=auto;html=1;" edge="1" parent="1" source="p3PnFOhuihg-IEMphHv4-75" target="p3PnFOhuihg-IEMphHv4-66">
          <mxGeometry relative="1" as="geometry" />
        </mxCell>
        <mxCell id="p3PnFOhuihg-IEMphHv4-89" value="" style="edgeStyle=orthogonalEdgeStyle;rounded=0;orthogonalLoop=1;jettySize=auto;html=1;" edge="1" parent="1" source="p3PnFOhuihg-IEMphHv4-75" target="p3PnFOhuihg-IEMphHv4-88">
          <mxGeometry relative="1" as="geometry" />
        </mxCell>
        <mxCell id="p3PnFOhuihg-IEMphHv4-75" value="Class NameTBD" style="whiteSpace=wrap;html=1;rounded=0;" vertex="1" parent="1">
          <mxGeometry x="1097.5" y="-1600" width="120" height="60" as="geometry" />
        </mxCell>
        <mxCell id="p3PnFOhuihg-IEMphHv4-93" value="" style="edgeStyle=orthogonalEdgeStyle;rounded=0;orthogonalLoop=1;jettySize=auto;html=1;" edge="1" parent="1" source="p3PnFOhuihg-IEMphHv4-78" target="p3PnFOhuihg-IEMphHv4-92">
          <mxGeometry relative="1" as="geometry" />
        </mxCell>
        <mxCell id="p3PnFOhuihg-IEMphHv4-78" value="Is Added Account Membership Item?&amp;nbsp;" style="rhombus;whiteSpace=wrap;html=1;" vertex="1" parent="1">
          <mxGeometry x="812.5" y="-1940" width="80" height="80" as="geometry" />
        </mxCell>
        <mxCell id="p3PnFOhuihg-IEMphHv4-91" value="" style="edgeStyle=orthogonalEdgeStyle;rounded=0;orthogonalLoop=1;jettySize=auto;html=1;" edge="1" parent="1" source="p3PnFOhuihg-IEMphHv4-80" target="p3PnFOhuihg-IEMphHv4-71">
          <mxGeometry relative="1" as="geometry" />
        </mxCell>
        <mxCell id="p3PnFOhuihg-IEMphHv4-99" style="edgeStyle=orthogonalEdgeStyle;rounded=0;orthogonalLoop=1;jettySize=auto;html=1;exitX=1;exitY=0;exitDx=0;exitDy=0;entryX=0.5;entryY=0;entryDx=0;entryDy=0;" edge="1" parent="1" source="p3PnFOhuihg-IEMphHv4-80" target="p3PnFOhuihg-IEMphHv4-84">
          <mxGeometry relative="1" as="geometry">
            <mxPoint x="1485.0399999999995" y="-1980" as="targetPoint" />
          </mxGeometry>
        </mxCell>
        <mxCell id="p3PnFOhuihg-IEMphHv4-80" value="Class Name TBD" style="whiteSpace=wrap;html=1;" vertex="1" parent="1">
          <mxGeometry x="1097.5" y="-1880" width="120" height="60" as="geometry" />
        </mxCell>
        <mxCell id="p3PnFOhuihg-IEMphHv4-84" value="Figure out paid orders and the overall paid amount. Use that and the period and installment and the amount of existing orders to determine the price of the items. If you have some paid orders and you add an installment then you will have to average the price among the unpaid orders and recalcuate the unpaid orders and the new order you have." style="whiteSpace=wrap;html=1;" vertex="1" parent="1">
          <mxGeometry x="1450" y="-1880" width="120" height="280" as="geometry" />
        </mxCell>
        <mxCell id="p3PnFOhuihg-IEMphHv4-88" value="Base class" style="whiteSpace=wrap;html=1;rounded=0;" vertex="1" parent="1">
          <mxGeometry x="1097.5" y="-1460" width="120" height="60" as="geometry" />
        </mxCell>
        <mxCell id="p3PnFOhuihg-IEMphHv4-95" value="No" style="edgeStyle=orthogonalEdgeStyle;rounded=0;orthogonalLoop=1;jettySize=auto;html=1;" edge="1" parent="1" source="p3PnFOhuihg-IEMphHv4-92" target="p3PnFOhuihg-IEMphHv4-94">
          <mxGeometry relative="1" as="geometry" />
        </mxCell>
        <mxCell id="p3PnFOhuihg-IEMphHv4-98" value="Yes" style="edgeStyle=orthogonalEdgeStyle;rounded=0;orthogonalLoop=1;jettySize=auto;html=1;entryX=0.5;entryY=0;entryDx=0;entryDy=0;" edge="1" parent="1" source="p3PnFOhuihg-IEMphHv4-92" target="p3PnFOhuihg-IEMphHv4-80">
          <mxGeometry relative="1" as="geometry" />
        </mxCell>
        <mxCell id="p3PnFOhuihg-IEMphHv4-92" value="Answered question to add to all installments" style="rhombus;whiteSpace=wrap;html=1;" vertex="1" parent="1">
          <mxGeometry x="925" y="-1940" width="80" height="80" as="geometry" />
        </mxCell>
        <mxCell id="p3PnFOhuihg-IEMphHv4-94" value="Do nothing" style="whiteSpace=wrap;html=1;" vertex="1" parent="1">
          <mxGeometry x="905" y="-2090" width="120" height="60" as="geometry" />
        </mxCell>
      </root>
    </mxGraphModel>
  </diagram>
</mxfile>
